<svg width="24" height="23" viewBox="0 0 24 23" fill="none" xmlns="http://www.w3.org/2000/svg">
<path d="M11.9917 22.0926L16.4077 8.50162H7.57568L11.9917 22.0926Z" fill="#E24329"/>
<path d="M11.9916 22.0926L7.57563 8.50159H1.38672L11.9916 22.0926Z" fill="#FC6D26"/>
<path d="M1.38676 8.50162L0.0448155 12.6318C-0.0775845 13.0085 0.0564727 13.4212 0.37693 13.654L11.9917 22.0926L1.38676 8.50162Z" fill="#FCA326"/>
<path d="M1.38678 8.50161H7.57569L4.91592 0.3159C4.77912 -0.105357 4.18324 -0.105243 4.04644 0.3159L1.38678 8.50161Z" fill="#E24329"/>
<path d="M11.9916 22.0926L16.4076 8.50159H22.5966L11.9916 22.0926Z" fill="#FC6D26"/>
<path d="M22.5966 8.50162L23.9385 12.6318C24.0609 13.0085 23.9268 13.4212 23.6064 13.654L11.9916 22.0926L22.5966 8.50162Z" fill="#FCA326"/>
<path d="M22.5966 8.50161H16.4077L19.0674 0.3159C19.2042 -0.105357 19.8001 -0.105243 19.9369 0.3159L22.5966 8.50161Z" fill="#E24329"/>
</svg>
