<svg width="17" height="24" viewBox="0 0 17 24" fill="none" xmlns="http://www.w3.org/2000/svg">
<path d="M8.17007 0C6.9766 0 5.83201 0.49386 4.98809 1.37294C4.14418 2.25201 3.67007 3.4443 3.67007 4.6875V5.46875H3.04757C2.41616 5.46806 1.80882 5.72107 1.35199 6.1751C0.895156 6.62914 0.624038 7.24922 0.595074 7.90625L0.0025741 20.7578C-0.0126145 21.1034 0.039531 21.4486 0.155867 21.7726C0.272204 22.0967 0.450322 22.3928 0.679485 22.6432C0.908648 22.8936 1.18411 23.093 1.48927 23.2296C1.79443 23.3661 2.12297 23.4368 2.45507 23.4375H13.8851C14.2172 23.4368 14.5457 23.3661 14.8509 23.2296C15.156 23.093 15.4315 22.8936 15.6607 22.6432C15.8898 22.3928 16.0679 22.0967 16.1843 21.7726C16.3006 21.4486 16.3528 21.1034 16.3376 20.7578L15.7451 7.90625C15.7161 7.24922 15.445 6.62914 14.9882 6.1751C14.5313 5.72107 13.924 5.46806 13.2926 5.46875H12.6701V4.6875C12.6701 3.4443 12.196 2.25201 11.3521 1.37294C10.5081 0.49386 9.36355 0 8.17007 0ZM5.17007 4.6875C5.17007 3.8587 5.48614 3.06384 6.04875 2.47779C6.61136 1.89174 7.37442 1.5625 8.17007 1.5625C8.96572 1.5625 9.72878 1.89174 10.2914 2.47779C10.854 3.06384 11.1701 3.8587 11.1701 4.6875V5.46875H5.17007V4.6875ZM3.94007 8.74219C3.94007 8.58767 3.98406 8.43662 4.06647 8.30815C4.14888 8.17967 4.26602 8.07954 4.40306 8.02041C4.54011 7.96128 4.69091 7.9458 4.83639 7.97595C4.98188 8.00609 5.11552 8.0805 5.2204 8.18976C5.32529 8.29902 5.39672 8.43822 5.42566 8.58977C5.4546 8.74132 5.43975 8.8984 5.38298 9.04116C5.32622 9.18391 5.23009 9.30593 5.10675 9.39177C4.98342 9.47762 4.83841 9.52344 4.69007 9.52344C4.49116 9.52344 4.3004 9.44113 4.15974 9.29461C4.01909 9.1481 3.94007 8.94939 3.94007 8.74219ZM10.9001 8.74219C10.9001 8.58767 10.9441 8.43662 11.0265 8.30815C11.1089 8.17967 11.226 8.07954 11.3631 8.02041C11.5001 7.96128 11.6509 7.9458 11.7964 7.97595C11.9419 8.00609 12.0755 8.0805 12.1804 8.18976C12.2853 8.29902 12.3567 8.43822 12.3857 8.58977C12.4146 8.74132 12.3997 8.8984 12.343 9.04116C12.2862 9.18391 12.1901 9.30593 12.0668 9.39177C11.9434 9.47762 11.7984 9.52344 11.6501 9.52344C11.4512 9.52344 11.2604 9.44113 11.1197 9.29461C10.9791 9.1481 10.9001 8.94939 10.9001 8.74219Z" fill="#9E9E9E"/>
</svg>
